<svg width="512" height="470" viewBox="0 0 512 470" fill="none" xmlns="http://www.w3.org/2000/svg">
    <path d="M245.621 126.209L213.447 181.927L172.755 111.445L65.1847 297.765H0.841553L9.57808 282.627L172.755 0L245.621 126.209Z" fill="#380F94"/>
    <path d="M339.245 0L257.638 141.342L225.465 197.065L167.327 297.765H231.67L257.638 252.783L289.812 197.065L339.245 111.445L446.815 297.765H511.158L339.245 0Z" fill="#380F94"/>
    <path d="M339.245 297.265C362.374 297.265 381.124 278.515 381.124 255.386C381.124 232.257 362.374 213.507 339.245 213.507C316.116 213.507 297.366 232.257 297.366 255.386C297.366 278.515 316.116 297.265 339.245 297.265Z" fill="#02DFFF"/>
    <path d="M134.318 382.889H83.122C81.8676 382.889 80.8542 382.403 80.0864 381.425C79.3185 380.447 79.0373 379.295 79.2471 377.97C79.3855 377.412 79.631 376.416 79.9792 374.987C80.3274 373.559 80.6935 372.005 81.0774 370.327C81.4613 368.653 81.9658 366.559 82.5953 364.046C82.872 363.278 83.3631 362.581 84.0595 361.952C84.7559 361.394 85.5952 361.113 86.5729 361.113H176.398C176.608 360.068 177.112 357.867 177.916 354.519C178.719 351.171 179.608 347.523 180.585 343.577C181.563 339.635 182.746 334.698 184.143 328.765H81.9613C68.0017 328.765 58.0553 336.372 52.1223 351.586C51.8411 352.702 51.2652 355.059 50.3947 358.653C49.5197 362.246 48.6134 365.929 47.6715 369.697C46.7295 373.465 46.0465 376.153 45.6313 377.76L45.4215 378.702V379.014C43.1849 388.786 44.9304 397.268 50.6581 404.456C56.3098 411.643 63.8856 415.242 73.3766 415.242H124.885C126.14 415.242 127.153 415.764 127.921 416.813C128.689 417.858 128.827 419.009 128.34 420.268C128.198 420.826 127.956 421.822 127.608 423.25C127.26 424.683 126.894 426.232 126.51 427.911C126.126 429.585 125.622 431.679 124.992 434.192C124.224 436.219 122.863 437.228 120.907 437.228H31.185C30.9752 438.273 30.4707 440.491 29.6672 443.875C28.8636 447.259 27.9752 450.96 26.9975 454.973C26.0199 458.987 24.8369 463.996 23.4395 469.995H125.515C132.773 469.995 139.126 467.835 144.568 463.504C150.01 459.107 153.675 453.455 155.559 446.545C155.697 445.706 156.117 443.893 156.813 441.103C157.51 438.313 158.26 435.277 159.063 431.996C159.867 428.715 160.563 425.871 161.157 423.465C161.751 421.058 162.045 419.782 162.045 419.643C162.112 419.505 162.148 419.398 162.148 419.331C164.309 409.768 162.568 401.322 156.912 393.996C151.26 386.599 143.72 382.898 134.296 382.898L134.318 382.889Z" fill="#fff"/>
    <path d="M301.45 328.765L291.504 371.688H291.401L290.147 377.028C289.727 378.773 288.785 380.206 287.321 381.322C285.924 382.367 284.352 382.894 282.611 382.894H229.112L231.728 371.903L241.674 328.769H232.67C218.848 328.769 208.974 336.55 203.041 352.117L174.251 470H207.75L218.429 425.715L219.371 421.737C220.697 417.831 223.384 415.875 227.433 415.875H280.826L277.683 428.438L267.736 470H276.741C291.049 470 300.959 462.219 306.473 446.652L335.682 328.769H301.446L301.45 328.765Z" fill="#fff"/>
    <path d="M481.775 339.756C475.632 332.425 467.641 328.765 457.802 328.765H363.628L329.758 469.995H437.905C452.422 469.995 462.471 462.214 468.056 446.647C471.757 431.295 474.824 418.536 477.27 408.384C479.712 398.228 481.944 388.983 483.971 380.639C485.993 372.3 487.252 367.081 487.739 364.988C489.833 355.425 487.842 347.019 481.77 339.756H481.775ZM452.878 366.032C449.596 379.501 446.873 390.688 444.712 399.585C442.547 408.483 440.579 416.599 438.797 423.924C437.016 431.25 435.882 435.826 435.396 437.639H372.477C375.968 423.259 378.878 411.309 381.218 401.782C383.557 392.255 385.668 383.586 387.552 375.764C389.436 367.947 390.624 363.063 391.11 361.108H448.797C450.052 361.108 451.101 361.599 451.94 362.572C452.779 363.55 453.092 364.702 452.882 366.028L452.878 366.032Z" fill="#fff"/>
</svg>
